<?xml version="1.0" encoding="UTF-8"?>
<svg version="1.1" xmlns="http://www.w3.org/2000/svg" width="24" height="24">
<path d="M0 0 C3.1258537 1.38926831 4.61073169 2.8741463 6 6 C6.96069078 10.88351147 7.11484847 15.49159094 5.0625 20.109375 C2.75674146 22.99157317 0.75124355 23.85221438 -2.859375 24.5625 C-7.62878248 24.84724075 -11.89709539 24.83232368 -15.75 21.75 C-18.83232368 17.89709539 -18.84724075 13.62878248 -18.5625 8.859375 C-17.85221438 5.24875645 -16.99157317 3.24325854 -14.109375 0.9375 C-9.49159094 -1.11484847 -4.88351147 -0.96069078 0 0 Z " fill="#FE6F57" transform="translate(18,0)"/>
<path d="M0 0 C2.8999076 -0.41427251 5.09667092 -0.47607884 7.734375 0.9140625 C10.64000597 3.28007629 11.8275619 5.15850208 12.5859375 8.859375 C12.84723185 13.86129541 12.84168122 17.89813198 9.375 21.75 C6.88783552 23.77526251 5.96347962 24.00405782 2.625 24.375 C1.325625 24.189375 1.325625 24.189375 0 24 C0.57584432 21.61435923 1.22227595 19.33317216 2 17 C1.34 17 0.68 17 0 17 C0 16.34 0 15.68 0 15 C0.66 15 1.32 15 2 15 C2 11.04 2 7.08 2 3 C1.34 3 0.68 3 0 3 C0 2.01 0 1.02 0 0 Z " fill="#F24A2F" transform="translate(12,0)"/>
<path d="M0 0 C1.32 0 2.64 0 4 0 C4 3.96 4 7.92 4 12 C2.68 12 1.36 12 0 12 C0 8.04 0 4.08 0 0 Z " fill="#FEF1E1" transform="translate(10,3)"/>
</svg>
